This is my own rip.

General
Unique ID                        : 230564799470220126478211865993521506858 (0xAD752A46C13EACC9BB2CF263CF4DAA2A)
Format                           : Matroska
Format version                   : Version 4 / Version 2
File size                        : 1.95 GiB
Duration                         : 1h 49mn
Overall bit rate mode            : Variable
Overall bit rate                 : 2 555 Kbps
Encoded date                     : UTC 2013-06-17 11:39:13
Writing application              : mkvmerge v6.1.0 ('Old Devil') built on Mar  2 2013 14:32:37
Writing library                  : libebml v1.3.0 + libmatroska v1.4.0

Video
ID                               : 1
Format                           : AVC
Format/Info                      : Advanced Video Codec
Format profile                   : High@L4.1
Format settings, CABAC           : Yes
Format settings, ReFrames        : 7 frames
Codec ID                         : V_MPEG4/ISO/AVC
Duration                         : 1h 49mn
Bit rate mode                    : Variable
Bit rate                         : 2 121 Kbps
Maximum bit rate                 : 10.3 Mbps
Width                            : 1 280 pixels
Height                           : 692 pixels
Display aspect ratio             : 1.850
Frame rate                       : 23.976 fps
Color space                      : YUV
Chroma subsampling               : 4:2:0
Bit depth                        : 8 bits
Scan type                        : Progressive
Bits/(Pixel*Frame)               : 0.100
Stream size                      : 1.62 GiB (83%)
Writing library                  : x264 core 129 r2245 bc13772
Language                         : English
Default                          : Yes
Forced                           : No

Audio
ID                               : 2
Format                           : AC-3
Format/Info                      : Audio Coding 3
Mode extension                   : CM (complete main)
Codec ID                         : A_AC3
Duration                         : 1h 49mn
Bit rate mode                    : Constant
Bit rate                         : 384 Kbps
Channel(s)                       : 6 channels
Channel positions                : Front: L C R, Side: L R, LFE
Sampling rate                    : 48.0 KHz
Bit depth                        : 16 bits
Compression mode                 : Lossy
Stream size                      : 300 MiB (15%)
Language                         : English
Default                          : Yes
Forced                           : No

Menu
00:00:00.000                     : en:Love of Gold
00:04:21.887                     : en:On Camera
00:09:53.551                     : en:Brass Ring
00:13:57.128                     : en:Burnt and Busted
00:19:14.570                     : en:Terms and Conditions
00:21:10.644                     : en:Marking Betty
00:23:52.620                     : en:Roadside Stop
00:30:20.277                     : en:Thieves Fall Out
00:35:56.279                     : en:Night Visitors
00:43:31.089                     : en:Go-Getters
00:45:43.407                     : en:The Lady Is Sincere
00:48:40.209                     : en:Keys to the Caper
00:54:17.254                     : en:Mess to Clean Up
00:58:25.691                     : en:Boom!
01:02:02.302                     : en:Pillaging the Plane
01:06:50.131                     : en:Left Behind
01:11:44.300                     : en:What's the Problem?
01:14:46.774                     : en:Taken for a Ride
01:18:26.368                     : en:Hell of a Thing
01:20:48.010                     : en:Retaking Shape
01:24:35.070                     : en:Pinky's Meet
01:28:24.299                     : en:Out on a Limb
01:32:46.519                     : en:Shootout
01:35:32.101                     : en:Last Words
01:36:34.080                     : en:Exchanging Tips
01:39:10.653                     : en:The Dude Is Insincere
01:41:50.771                     : en:Under Wraps
01:43:24.512                     : en:End Credits
